STARTFONT 2.1
FONT -Adobe-ITC Lubalin Graph-Book-R-Normal--18-180-75-75-P-106-ISO8859-1
SIZE 18 75 75
FONTBOUNDINGBOX 21 23 -1 -4

STARTPROPERTIES 30
FOUNDRY "Adobe"
FAMILY_NAME "ITC Lubalin Graph"
WEIGHT_NAME "Book"
SLANT "R"
SETWIDTH_NAME "Normal"
ADD_STYLE_NAME ""
PIXEL_SIZE 18
POINT_SIZE 180
RESOLUTION_X 75
RESOLUTION_Y 75
SPACING "P"
AVERAGE_WIDTH 106
CHARSET_REGISTRY "ISO8859"
CHARSET_ENCODING "1"
CAP_HEIGHT 14
X_HEIGHT 10
FACE_NAME "ITC Lubalin Graph Book"
COPYRIGHT "Copyright (c) 1984, 1987 Adobe Systems Incorporated. All Rights Reserved. Copyright (c) 1988, 1991 Digital Equipment Corporation. All Rights Reserved."
NOTICE "ITC Lubalin Graph is a registered trademark of International Typeface Corporation."
_DEC_DEVICE_FONTNAMES "PS=LubalinGraph-Book"
_DEC_PRODUCTINFO "DECwindows Fonts V2.2, 07-Nov-1991"
RELATIVE_SETWIDTH 50
RELATIVE_WEIGHT 40
CHARSET_COLLECTIONS "ASCII ISO8859-1 ADOBE-STANDARD"
FULL_NAME "ITC Lubalin Graph Book"
WEIGHT 10
QUAD_WIDTH 12
DEFAULT_CHAR 32
FONT_DESCENT 4
FONT_ASCENT 17
ENDPROPERTIES

CHARS 191

STARTCHAR space
ENCODING 32
SWIDTH 300 0
DWIDTH 4 0
BBX 1 1 0 0
BITMAP
00
ENDCHAR

STARTCHAR exclam
ENCODING 33
SWIDTH 140 0
DWIDTH 5 0
BBX 1 14 2 0
BITMAP
80
80
80
80
80
80
80
80
80
80
80
00
80
80
ENDCHAR

STARTCHAR quotedbl
ENCODING 34
SWIDTH 280 0
DWIDTH 5 0
BBX 3 5 1 9
BITMAP
A0
A0
A0
A0
A0
ENDCHAR

STARTCHAR numbersign
ENCODING 35
SWIDTH 580 0
DWIDTH 11 0
BBX 11 12 0 1
BITMAP
0480
0480
0480
0480
7FE0
0900
0900
FFC0
1200
1200
1200
1200
ENDCHAR

STARTCHAR dollar
ENCODING 36
SWIDTH 580 0
DWIDTH 11 0
BBX 8 16 2 -2
BITMAP
10
3D
53
91
91
D0
70
18
16
13
91
91
D2
BC
10
10
ENDCHAR

STARTCHAR percent
ENCODING 37
SWIDTH 800 0
DWIDTH 13 0
BBX 11 14 1 0
BITMAP
7080
8880
8900
8900
7200
0200
0400
0400
0800
09C0
1220
1220
2220
21C0
ENDCHAR

STARTCHAR ampersand
ENCODING 38
SWIDTH 720 0
DWIDTH 14 0
BBX 13 14 0 0
BITMAP
1C00
2200
4100
4100
2200
1C38
2420
4240
8140
8080
80C0
8120
4210
3C08
ENDCHAR

STARTCHAR quoteright
ENCODING 39
SWIDTH 200 0
DWIDTH 4 0
BBX 2 4 1 10
BITMAP
40
40
80
80
ENDCHAR

STARTCHAR parenleft
ENCODING 40
SWIDTH 340 0
DWIDTH 7 0
BBX 5 17 1 -3
BITMAP
08
10
20
40
40
80
80
80
80
80
80
80
40
40
20
10
08
ENDCHAR

STARTCHAR parenright
ENCODING 41
SWIDTH 340 0
DWIDTH 7 0
BBX 5 17 1 -3
BITMAP
80
40
20
10
10
08
08
08
08
08
08
08
10
10
20
40
80
ENDCHAR

STARTCHAR asterisk
ENCODING 42
SWIDTH 340 0
DWIDTH 8 0
BBX 6 5 1 9
BITMAP
48
30
FC
30
48
ENDCHAR

STARTCHAR plus
ENCODING 43
SWIDTH 660 0
DWIDTH 11 0
BBX 9 9 1 2
BITMAP
0800
0800
0800
0800
FF80
0800
0800
0800
0800
ENDCHAR

STARTCHAR comma
ENCODING 44
SWIDTH 300 0
DWIDTH 5 0
BBX 2 4 1 -2
BITMAP
40
40
80
80
ENDCHAR

STARTCHAR minus
ENCODING 45
SWIDTH 660 0
DWIDTH 11 0
BBX 9 1 1 6
BITMAP
FF80
ENDCHAR

STARTCHAR period
ENCODING 46
SWIDTH 300 0
DWIDTH 5 0
BBX 1 2 2 0
BITMAP
80
80
ENDCHAR

STARTCHAR slash
ENCODING 47
SWIDTH 580 0
DWIDTH 11 0
BBX 8 16 1 -2
BITMAP
01
01
02
02
04
04
08
08
10
10
20
20
40
40
80
80
ENDCHAR

STARTCHAR zero
ENCODING 48
SWIDTH 580 0
DWIDTH 11 0
BBX 9 14 1 0
BITMAP
1C00
6300
4100
8080
8080
8080
8080
8080
8080
8080
8080
4100
6300
1C00
ENDCHAR

STARTCHAR one
ENCODING 49
SWIDTH 580 0
DWIDTH 11 0
BBX 6 14 2 0
BITMAP
F0
10
10
10
10
10
10
10
10
10
10
10
10
7C
ENDCHAR

STARTCHAR two
ENCODING 50
SWIDTH 580 0
DWIDTH 11 0
BBX 8 14 1 0
BITMAP
3C
42
81
81
81
01
02
04
08
10
20
41
81
FF
ENDCHAR

STARTCHAR three
ENCODING 51
SWIDTH 580 0
DWIDTH 11 0
BBX 9 14 1 0
BITMAP
3E00
4100
4080
0080
0080
0100
0E00
0100
0080
0080
8080
8080
4100
3E00
ENDCHAR

STARTCHAR four
ENCODING 52
SWIDTH 580 0
DWIDTH 11 0
BBX 9 14 1 0
BITMAP
0600
0A00
0A00
1200
1200
2200
2200
4200
4200
8200
FF80
0200
0200
0F80
ENDCHAR

STARTCHAR five
ENCODING 53
SWIDTH 580 0
DWIDTH 11 0
BBX 9 14 1 0
BITMAP
7F00
4000
4000
8000
8000
BC00
C300
0100
0080
0080
0080
8100
4300
3C00
ENDCHAR

STARTCHAR six
ENCODING 54
SWIDTH 580 0
DWIDTH 11 0
BBX 9 14 1 0
BITMAP
0400
0800
1000
2000
4000
5C00
E300
C100
8080
8080
8080
4100
6300
1C00
ENDCHAR

STARTCHAR seven
ENCODING 55
SWIDTH 580 0
DWIDTH 11 0
BBX 8 14 1 0
BITMAP
FF
81
81
02
02
04
04
08
08
08
10
10
20
20
ENDCHAR

STARTCHAR eight
ENCODING 56
SWIDTH 580 0
DWIDTH 11 0
BBX 8 14 1 0
BITMAP
3C
42
42
42
24
18
66
42
81
81
81
81
42
3C
ENDCHAR

STARTCHAR nine
ENCODING 57
SWIDTH 580 0
DWIDTH 11 0
BBX 8 14 1 0
BITMAP
3C
42
81
81
81
81
81
42
3E
04
08
08
10
10
ENDCHAR

STARTCHAR colon
ENCODING 58
SWIDTH 300 0
DWIDTH 5 0
BBX 1 9 2 0
BITMAP
80
80
00
00
00
00
00
80
80
ENDCHAR

STARTCHAR semicolon
ENCODING 59
SWIDTH 300 0
DWIDTH 5 0
BBX 2 11 1 -2
BITMAP
40
40
00
00
00
00
00
40
40
80
80
ENDCHAR

STARTCHAR less
ENCODING 60
SWIDTH 660 0
DWIDTH 12 0
BBX 10 9 1 1
BITMAP
00C0
0300
0C00
3000
C000
3000
0C00
0300
00C0
ENDCHAR

STARTCHAR equal
ENCODING 61
SWIDTH 660 0
DWIDTH 11 0
BBX 9 4 1 4
BITMAP
FF80
0000
0000
FF80
ENDCHAR

STARTCHAR greater
ENCODING 62
SWIDTH 660 0
DWIDTH 12 0
BBX 10 9 1 1
BITMAP
C000
3000
0C00
0300
00C0
0300
0C00
3000
C000
ENDCHAR

STARTCHAR question
ENCODING 63
SWIDTH 520 0
DWIDTH 9 0
BBX 8 14 0 0
BITMAP
3C
42
81
81
01
01
02
04
08
10
10
00
10
10
ENDCHAR

STARTCHAR at
ENCODING 64
SWIDTH 900 0
DWIDTH 16 0
BBX 14 14 1 0
BITMAP
07E0
1818
2008
43A4
4C44
8844
9044
9088
9088
5190
4E64
2008
1830
07C0
ENDCHAR

STARTCHAR A
ENCODING 65
SWIDTH 820 0
DWIDTH 15 0
BBX 15 14 0 0
BITMAP
0700
0100
0280
0280
0440
0440
0820
0820
0FE0
1010
1010
2008
2008
F83E
ENDCHAR

STARTCHAR B
ENCODING 66
SWIDTH 580 0
DWIDTH 11 0
BBX 10 14 0 0
BITMAP
FE00
2100
2080
2080
2080
2100
3F00
2080
2040
2040
2040
2040
2080
FF00
ENDCHAR

STARTCHAR C
ENCODING 67
SWIDTH 740 0
DWIDTH 14 0
BBX 12 14 1 0
BITMAP
0F90
3050
4030
4010
8000
8000
8000
8000
8000
8000
4010
4020
3040
0F80
ENDCHAR

STARTCHAR D
ENCODING 68
SWIDTH 720 0
DWIDTH 14 0
BBX 13 14 0 0
BITMAP
FF80
2060
2010
2010
2008
2008
2008
2008
2008
2008
2010
2010
2060
FF80
ENDCHAR

STARTCHAR E
ENCODING 69
SWIDTH 560 0
DWIDTH 10 0
BBX 9 14 0 0
BITMAP
FF80
2080
2080
2000
2000
2000
3F00
2000
2000
2000
2000
2080
2080
FF80
ENDCHAR

STARTCHAR F
ENCODING 70
SWIDTH 560 0
DWIDTH 10 0
BBX 9 14 0 0
BITMAP
FF80
2080
2080
2000
2000
2000
3F00
2000
2000
2000
2000
2000
2000
F800
ENDCHAR

STARTCHAR G
ENCODING 71
SWIDTH 780 0
DWIDTH 15 0
BBX 12 14 1 0
BITMAP
0F90
3050
4030
4010
8000
8000
8000
8000
87F0
8010
4010
4030
3050
0F90
ENDCHAR

STARTCHAR H
ENCODING 72
SWIDTH 720 0
DWIDTH 13 0
BBX 13 14 0 0
BITMAP
F8F8
2020
2020
2020
2020
2020
3FE0
2020
2020
2020
2020
2020
2020
F8F8
ENDCHAR

STARTCHAR I
ENCODING 73
SWIDTH 300 0
DWIDTH 7 0
BBX 5 14 1 0
BITMAP
F8
20
20
20
20
20
20
20
20
20
20
20
20
F8
ENDCHAR

STARTCHAR J
ENCODING 74
SWIDTH 520 0
DWIDTH 10 0
BBX 9 14 0 0
BITMAP
0F80
0200
0200
0200
0200
0200
0200
0200
0200
0200
8200
8200
4400
3800
ENDCHAR

STARTCHAR K
ENCODING 75
SWIDTH 700 0
DWIDTH 13 0
BBX 12 14 0 0
BITMAP
F8F0
2040
2080
2100
2200
2400
2800
3800
2400
2200
2100
2080
2040
F8F0
ENDCHAR

STARTCHAR L
ENCODING 76
SWIDTH 520 0
DWIDTH 10 0
BBX 9 14 0 0
BITMAP
F800
2000
2000
2000
2000
2000
2000
2000
2000
2000
2000
2080
2080
FF80
ENDCHAR

STARTCHAR M
ENCODING 77
SWIDTH 980 0
DWIDTH 17 0
BBX 17 14 0 0
BITMAP
F00780
300600
280A00
280A00
280A00
241200
241200
222200
222200
222200
214200
214200
208200
F88F80
ENDCHAR

STARTCHAR N
ENCODING 78
SWIDTH 800 0
DWIDTH 15 0
BBX 15 14 0 0
BITMAP
F03E
3008
2808
2808
2408
2208
2208
2108
2088
2088
2048
2028
2018
F818
ENDCHAR

STARTCHAR O
ENCODING 79
SWIDTH 800 0
DWIDTH 15 0
BBX 13 14 1 0
BITMAP
0F80
3060
4010
4010
8008
8008
8008
8008
8008
8008
4010
4010
3060
0F80
ENDCHAR

STARTCHAR P
ENCODING 80
SWIDTH 580 0
DWIDTH 12 0
BBX 11 14 0 0
BITMAP
FF80
2040
2020
2020
2020
2020
2040
3F80
2000
2000
2000
2000
2000
F800
ENDCHAR

STARTCHAR Q
ENCODING 81
SWIDTH 860 0
DWIDTH 15 0
BBX 14 14 1 0
BITMAP
0F80
3060
4010
4010
8008
8008
8008
8008
8008
BE08
4190
4050
3064
0F9C
ENDCHAR

STARTCHAR R
ENCODING 82
SWIDTH 640 0
DWIDTH 13 0
BBX 13 14 0 0
BITMAP
FF80
2040
2020
2020
2020
2020
2040
2780
2200
2100
2080
2040
2020
F838
ENDCHAR

STARTCHAR S
ENCODING 83
SWIDTH 500 0
DWIDTH 9 0
BBX 8 14 1 0
BITMAP
3D
43
81
80
80
40
38
06
01
01
01
81
C2
BC
ENDCHAR

STARTCHAR T
ENCODING 84
SWIDTH 540 0
DWIDTH 10 0
BBX 9 14 1 0
BITMAP
FF80
8880
8880
0800
0800
0800
0800
0800
0800
0800
0800
0800
0800
3E00
ENDCHAR

STARTCHAR U
ENCODING 85
SWIDTH 700 0
DWIDTH 13 0
BBX 13 14 0 0
BITMAP
F8F8
2020
2020
2020
2020
2020
2020
2020
2020
2020
2020
2020
1040
0F80
ENDCHAR

STARTCHAR V
ENCODING 86
SWIDTH 780 0
DWIDTH 15 0
BBX 15 14 0 0
BITMAP
F83E
2008
1010
1010
0820
0820
0820
0440
0440
0280
0280
0280
0100
0100
ENDCHAR

STARTCHAR W
ENCODING 87
SWIDTH 1040 0
DWIDTH 19 0
BBX 19 14 0 0
BITMAP
F843E0
204080
204080
20A080
10A100
10A100
111100
111100
0A0A00
0A0A00
0A0A00
040400
040400
040400
ENDCHAR

STARTCHAR X
ENCODING 88
SWIDTH 740 0
DWIDTH 13 0
BBX 13 14 0 0
BITMAP
F8F8
2020
1040
1040
0880
0500
0200
0500
0500
0880
1040
1040
2020
F8F8
ENDCHAR

STARTCHAR Y
ENCODING 89
SWIDTH 680 0
DWIDTH 13 0
BBX 13 14 0 0
BITMAP
F8F8
2020
1040
1040
0880
0880
0500
0700
0200
0200
0200
0200
0200
0F80
ENDCHAR

STARTCHAR Z
ENCODING 90
SWIDTH 520 0
DWIDTH 10 0
BBX 9 14 1 0
BITMAP
FF80
8080
8100
0200
0200
0400
0800
0800
1000
2000
2000
4080
8080
FF80
ENDCHAR

STARTCHAR bracketleft
ENCODING 91
SWIDTH 300 0
DWIDTH 5 0
BBX 3 17 1 -3
BITMAP
E0
80
80
80
80
80
80
80
80
80
80
80
80
80
80
80
E0
ENDCHAR

STARTCHAR backslash
ENCODING 92
SWIDTH 580 0
DWIDTH 8 0
BBX 5 14 1 0
BITMAP
80
80
80
40
40
40
20
20
10
10
10
08
08
08
ENDCHAR

STARTCHAR bracketright
ENCODING 93
SWIDTH 300 0
DWIDTH 5 0
BBX 3 17 1 -3
BITMAP
E0
20
20
20
20
20
20
20
20
20
20
20
20
20
20
20
E0
ENDCHAR

STARTCHAR asciicircum
ENCODING 94
SWIDTH 660 0
DWIDTH 11 0
BBX 9 10 1 4
BITMAP
0800
0800
1400
1400
2200
2200
4100
4100
8080
8080
ENDCHAR

STARTCHAR underscore
ENCODING 95
SWIDTH 500 0
DWIDTH 9 0
BBX 9 1 0 -3
BITMAP
FF80
ENDCHAR

STARTCHAR quoteleft
ENCODING 96
SWIDTH 200 0
DWIDTH 4 0
BBX 2 4 1 10
BITMAP
80
80
40
40
ENDCHAR

STARTCHAR a
ENCODING 97
SWIDTH 660 0
DWIDTH 12 0
BBX 11 10 1 0
BITMAP
1CE0
6280
4180
8080
8080
8080
8080
4180
6280
1CE0
ENDCHAR

STARTCHAR b
ENCODING 98
SWIDTH 660 0
DWIDTH 13 0
BBX 12 14 0 0
BITMAP
E000
2000
2000
2000
2780
2860
3020
2010
2010
2010
2010
3020
2860
E780
ENDCHAR

STARTCHAR c
ENCODING 99
SWIDTH 560 0
DWIDTH 10 0
BBX 9 10 1 0
BITMAP
1E80
6180
4080
8000
8000
8000
8000
4080
6100
1E00
ENDCHAR

STARTCHAR d
ENCODING 100
SWIDTH 660 0
DWIDTH 12 0
BBX 12 14 1 0
BITMAP
01C0
0040
0040
0040
1E40
6140
40C0
8040
8040
8040
8040
40C0
6140
1E70
ENDCHAR

STARTCHAR e
ENCODING 101
SWIDTH 580 0
DWIDTH 11 0
BBX 9 10 1 0
BITMAP
1E00
6100
4080
8080
FF80
8000
8000
4080
6100
1E00
ENDCHAR

STARTCHAR f
ENCODING 102
SWIDTH 300 0
DWIDTH 5 0
BBX 6 14 0 0
BITMAP
0C
10
20
20
F8
20
20
20
20
20
20
20
20
F8
ENDCHAR

STARTCHAR g
ENCODING 103
SWIDTH 660 0
DWIDTH 12 0
BBX 12 13 1 -3
BITMAP
1E70
6140
40C0
8040
8040
8040
8040
40C0
6140
1E40
0040
4080
3F00
ENDCHAR

STARTCHAR h
ENCODING 104
SWIDTH 640 0
DWIDTH 12 0
BBX 12 14 0 0
BITMAP
E000
2000
2000
2000
2F00
3080
2040
2040
2040
2040
2040
2040
2040
F9F0
ENDCHAR

STARTCHAR i
ENCODING 105
SWIDTH 260 0
DWIDTH 5 0
BBX 5 14 0 0
BITMAP
20
20
00
00
E0
20
20
20
20
20
20
20
20
F8
ENDCHAR

STARTCHAR j
ENCODING 106
SWIDTH 240 0
DWIDTH 4 0
BBX 3 17 0 -3
BITMAP
20
20
00
00
E0
20
20
20
20
20
20
20
20
20
20
20
C0
ENDCHAR

STARTCHAR k
ENCODING 107
SWIDTH 580 0
DWIDTH 11 0
BBX 10 14 0 0
BITMAP
E000
2000
2000
2000
23C0
2100
2200
2400
2800
3800
2400
2200
2100
FBC0
ENDCHAR

STARTCHAR l
ENCODING 108
SWIDTH 280 0
DWIDTH 5 0
BBX 5 14 0 0
BITMAP
E0
20
20
20
20
20
20
20
20
20
20
20
20
F8
ENDCHAR

STARTCHAR m
ENCODING 109
SWIDTH 980 0
DWIDTH 17 0
BBX 17 10 0 0
BITMAP
EE3800
314400
208200
208200
208200
208200
208200
208200
208200
FBEF80
ENDCHAR

STARTCHAR n
ENCODING 110
SWIDTH 660 0
DWIDTH 12 0
BBX 12 10 0 0
BITMAP
EF00
3080
2040
2040
2040
2040
2040
2040
2040
F9F0
ENDCHAR

STARTCHAR o
ENCODING 111
SWIDTH 580 0
DWIDTH 12 0
BBX 10 10 1 0
BITMAP
1E00
6180
4080
8040
8040
8040
8040
4080
6180
1E00
ENDCHAR

STARTCHAR p
ENCODING 112
SWIDTH 660 0
DWIDTH 13 0
BBX 12 13 0 -3
BITMAP
E780
2860
3020
2010
2010
2010
2010
3020
2860
2780
2000
2000
F800
ENDCHAR

STARTCHAR q
ENCODING 113
SWIDTH 660 0
DWIDTH 12 0
BBX 12 13 0 -3
BITMAP
1E70
6140
40C0
8040
8040
8040
8040
40C0
6140
1E40
0040
0040
01F0
ENDCHAR

STARTCHAR r
ENCODING 114
SWIDTH 360 0
DWIDTH 7 0
BBX 7 10 0 0
BITMAP
E6
28
30
20
20
20
20
20
20
F8
ENDCHAR

STARTCHAR s
ENCODING 115
SWIDTH 420 0
DWIDTH 9 0
BBX 7 10 1 0
BITMAP
7A
C6
82
80
70
0C
02
82
C6
BC
ENDCHAR

STARTCHAR t
ENCODING 116
SWIDTH 320 0
DWIDTH 6 0
BBX 5 13 0 0
BITMAP
20
20
20
F8
20
20
20
20
20
20
20
20
38
ENDCHAR

STARTCHAR u
ENCODING 117
SWIDTH 640 0
DWIDTH 12 0
BBX 12 10 0 0
BITMAP
E1C0
2040
2040
2040
2040
2040
2040
2040
10C0
0F70
ENDCHAR

STARTCHAR v
ENCODING 118
SWIDTH 640 0
DWIDTH 11 0
BBX 11 10 0 0
BITMAP
F1E0
2080
2080
1100
1100
1100
0A00
0A00
0400
0400
ENDCHAR

STARTCHAR w
ENCODING 119
SWIDTH 900 0
DWIDTH 17 0
BBX 17 10 0 0
BITMAP
F80F80
208200
208200
114400
114400
114400
0A2800
0A2800
041000
041000
ENDCHAR

STARTCHAR x
ENCODING 120
SWIDTH 600 0
DWIDTH 11 0
BBX 11 10 0 0
BITMAP
F1E0
2080
1100
0A00
0400
0A00
0A00
1100
2080
F1E0
ENDCHAR

STARTCHAR y
ENCODING 121
SWIDTH 640 0
DWIDTH 11 0
BBX 11 13 0 -3
BITMAP
F1E0
2080
2080
1100
1100
1100
0A00
0A00
0400
0400
0400
0800
3E00
ENDCHAR

STARTCHAR z
ENCODING 122
SWIDTH 420 0
DWIDTH 8 0
BBX 7 10 1 0
BITMAP
FE
84
88
08
10
10
20
22
42
FE
ENDCHAR

STARTCHAR braceleft
ENCODING 123
SWIDTH 300 0
DWIDTH 5 0
BBX 3 17 1 -3
BITMAP
20
40
40
40
40
40
40
40
80
40
40
40
40
40
40
40
20
ENDCHAR

STARTCHAR bar
ENCODING 124
SWIDTH 660 0
DWIDTH 11 0
BBX 1 14 5 0
BITMAP
80
80
80
80
80
80
80
80
80
80
80
80
80
80
ENDCHAR

STARTCHAR braceright
ENCODING 125
SWIDTH 300 0
DWIDTH 5 0
BBX 3 17 1 -3
BITMAP
80
40
40
40
40
40
40
40
20
40
40
40
40
40
40
40
80
ENDCHAR

STARTCHAR asciitilde
ENCODING 126
SWIDTH 660 0
DWIDTH 12 0
BBX 10 2 1 5
BITMAP
7840
8780
ENDCHAR

STARTCHAR space
ENCODING 160
SWIDTH 300 0
DWIDTH 4 0
BBX 1 1 0 0
BITMAP
00
ENDCHAR

STARTCHAR exclamdown
ENCODING 161
SWIDTH 140 0
DWIDTH 5 0
BBX 1 14 2 -4
BITMAP
80
80
00
80
80
80
80
80
80
80
80
80
80
80
ENDCHAR

STARTCHAR cent
ENCODING 162
SWIDTH 580 0
DWIDTH 10 0
BBX 8 12 1 1
BITMAP
08
08
3D
4B
89
88
88
89
4A
3C
08
08
ENDCHAR

STARTCHAR sterling
ENCODING 163
SWIDTH 640 0
DWIDTH 12 0
BBX 9 14 1 0
BITMAP
3D00
4300
8100
8000
8000
4000
2000
FE00
1000
1080
1080
2080
4100
FE00
ENDCHAR

STARTCHAR currency
ENCODING 164
SWIDTH 560 0
DWIDTH 10 0
BBX 8 8 1 3
BITMAP
BD
42
81
81
81
81
42
BD
ENDCHAR

STARTCHAR yen
ENCODING 165
SWIDTH 740 0
DWIDTH 14 0
BBX 13 14 0 0
BITMAP
F8F8
2020
1040
1040
0880
0880
3DE0
0500
3FE0
0200
0200
0200
0200
0F80
ENDCHAR

STARTCHAR brokenbar
ENCODING 166
SWIDTH 660 0
DWIDTH 11 0
BBX 1 14 5 0
BITMAP
80
80
80
80
80
00
00
00
00
80
80
80
80
80
ENDCHAR

STARTCHAR section
ENCODING 167
SWIDTH 440 0
DWIDTH 8 0
BBX 6 17 1 -3
BITMAP
38
44
84
80
40
78
8C
84
84
C4
78
08
04
04
84
88
70
ENDCHAR

STARTCHAR dieresis
ENCODING 168
SWIDTH 340 0
DWIDTH 7 0
BBX 3 2 2 12
BITMAP
A0
A0
ENDCHAR

STARTCHAR copyright
ENCODING 169
SWIDTH 820 0
DWIDTH 15 0
BBX 13 14 1 0
BITMAP
0F80
3060
4010
4710
8888
9008
9008
9008
9008
8888
4710
4010
3060
0F80
ENDCHAR

STARTCHAR ordfeminine
ENCODING 170
SWIDTH 420 0
DWIDTH 8 0
BBX 7 8 0 6
BITMAP
76
8C
84
84
8C
76
00
FE
ENDCHAR

STARTCHAR guillemotleft
ENCODING 171
SWIDTH 320 0
DWIDTH 7 0
BBX 5 5 1 3
BITMAP
28
50
A0
50
28
ENDCHAR

STARTCHAR logicalnot
ENCODING 172
SWIDTH 660 0
DWIDTH 12 0
BBX 10 5 1 3
BITMAP
FFC0
0040
0040
0040
0040
ENDCHAR

STARTCHAR hyphen
ENCODING 173
SWIDTH 300 0
DWIDTH 6 0
BBX 5 1 0 5
BITMAP
F8
ENDCHAR

STARTCHAR registered
ENCODING 174
SWIDTH 820 0
DWIDTH 15 0
BBX 13 14 1 0
BITMAP
0F80
3060
4010
4F90
8848
8848
8848
8F88
8908
8888
4850
4010
3060
0F80
ENDCHAR

STARTCHAR macron
ENCODING 175
SWIDTH 460 0
DWIDTH 9 0
BBX 5 1 2 13
BITMAP
F8
ENDCHAR

STARTCHAR degree
ENCODING 176
SWIDTH 400 0
DWIDTH 7 0
BBX 5 5 0 9
BITMAP
70
88
88
88
70
ENDCHAR

STARTCHAR plusminus
ENCODING 177
SWIDTH 660 0
DWIDTH 11 0
BBX 9 9 1 2
BITMAP
0800
0800
0800
FF80
0800
0800
0800
0000
FF80
ENDCHAR

STARTCHAR twosuperior
ENCODING 178
SWIDTH 348 0
DWIDTH 6 0
BBX 5 8 0 6
BITMAP
70
88
08
10
20
40
88
F8
ENDCHAR

STARTCHAR threesuperior
ENCODING 179
SWIDTH 348 0
DWIDTH 6 0
BBX 5 8 0 6
BITMAP
70
88
08
30
08
08
88
70
ENDCHAR

STARTCHAR acute
ENCODING 180
SWIDTH 420 0
DWIDTH 8 0
BBX 6 3 1 11
BITMAP
0C
30
C0
ENDCHAR

STARTCHAR mu
ENCODING 181
SWIDTH 640 0
DWIDTH 12 0
BBX 12 14 0 -4
BITMAP
E1C0
2040
2040
2040
2040
2040
2040
2040
30C0
2F70
2000
2000
2000
2000
ENDCHAR

STARTCHAR paragraph
ENCODING 182
SWIDTH 500 0
DWIDTH 10 0
BBX 9 17 0 -3
BITMAP
3F80
7A00
FA00
FA00
FA00
7A00
3A00
0A00
0A00
0A00
0A00
0A00
0A00
0A00
0A00
0A00
0A00
ENDCHAR

STARTCHAR periodcentered
ENCODING 183
SWIDTH 300 0
DWIDTH 5 0
BBX 1 2 2 5
BITMAP
80
80
ENDCHAR

STARTCHAR cedilla
ENCODING 184
SWIDTH 320 0
DWIDTH 6 0
BBX 3 4 2 -4
BITMAP
40
C0
20
C0
ENDCHAR

STARTCHAR onesuperior
ENCODING 185
SWIDTH 348 0
DWIDTH 6 0
BBX 3 8 1 6
BITMAP
C0
40
40
40
40
40
40
E0
ENDCHAR

STARTCHAR ordmasculine
ENCODING 186
SWIDTH 340 0
DWIDTH 7 0
BBX 6 8 0 6
BITMAP
78
84
84
84
84
78
00
FC
ENDCHAR

STARTCHAR guillemotright
ENCODING 187
SWIDTH 320 0
DWIDTH 7 0
BBX 5 5 1 3
BITMAP
A0
50
28
50
A0
ENDCHAR

STARTCHAR onequarter
ENCODING 188
SWIDTH 870 0
DWIDTH 16 0
BBX 12 14 2 0
BITMAP
C080
4080
4100
4100
4200
4200
4420
E460
08A0
0920
1220
13F0
2020
2070
ENDCHAR

STARTCHAR onehalf
ENCODING 189
SWIDTH 870 0
DWIDTH 16 0
BBX 12 14 2 0
BITMAP
C080
4080
4100
4100
4200
4200
44E0
E510
0810
0820
1040
1080
2110
21F0
ENDCHAR

STARTCHAR threequarters
ENCODING 190
SWIDTH 870 0
DWIDTH 16 0
BBX 14 14 0 0
BITMAP
7020
8820
0840
3040
0880
0880
8908
7118
0228
0248
0488
04FC
0808
081C
ENDCHAR

STARTCHAR questiondown
ENCODING 191
SWIDTH 520 0
DWIDTH 9 0
BBX 8 14 0 -4
BITMAP
08
08
00
08
08
10
20
40
80
80
81
81
42
3C
ENDCHAR

STARTCHAR Agrave
ENCODING 192
SWIDTH 820 0
DWIDTH 15 0
BBX 15 18 0 0
BITMAP
1800
0600
0180
0000
0700
0100
0280
0280
0440
0440
0820
0820
0FE0
1010
1010
2008
2008
F83E
ENDCHAR

STARTCHAR Aacute
ENCODING 193
SWIDTH 820 0
DWIDTH 15 0
BBX 15 18 0 0
BITMAP
0030
00C0
0300
0000
0700
0100
0280
0280
0440
0440
0820
0820
0FE0
1010
1010
2008
2008
F83E
ENDCHAR

STARTCHAR Acircumflex
ENCODING 194
SWIDTH 820 0
DWIDTH 15 0
BBX 15 18 0 0
BITMAP
0100
0280
0440
0000
0700
0100
0280
0280
0440
0440
0820
0820
0FE0
1010
1010
2008
2008
F83E
ENDCHAR

STARTCHAR Atilde
ENCODING 195
SWIDTH 820 0
DWIDTH 15 0
BBX 15 17 0 0
BITMAP
0640
0980
0000
0700
0100
0280
0280
0440
0440
0820
0820
0FE0
1010
1010
2008
2008
F83E
ENDCHAR

STARTCHAR Adieresis
ENCODING 196
SWIDTH 820 0
DWIDTH 15 0
BBX 15 17 0 0
BITMAP
0280
0280
0000
0700
0100
0280
0280
0440
0440
0820
0820
0FE0
1010
1010
2008
2008
F83E
ENDCHAR

STARTCHAR Aring
ENCODING 197
SWIDTH 820 0
DWIDTH 15 0
BBX 15 19 0 0
BITMAP
0300
0480
0480
0300
0000
0700
0100
0280
0280
0440
0440
0820
0820
0FE0
1010
1010
2008
2008
F83E
ENDCHAR

STARTCHAR AE
ENCODING 198
SWIDTH 1000 0
DWIDTH 18 0
BBX 17 14 0 0
BITMAP
01FF80
006080
00A080
012000
012000
022000
043F00
042000
0FE000
102000
102000
202080
202080
F8FF80
ENDCHAR

STARTCHAR Ccedilla
ENCODING 199
SWIDTH 740 0
DWIDTH 14 0
BBX 12 18 1 -4
BITMAP
0F90
3050
4030
4010
8000
8000
8000
8000
8000
8000
4010
4020
3040
0F80
0400
0C00
0200
0C00
ENDCHAR

STARTCHAR Egrave
ENCODING 200
SWIDTH 560 0
DWIDTH 10 0
BBX 9 18 0 0
BITMAP
3000
0C00
0300
0000
FF80
2080
2080
2000
2000
2000
3F00
2000
2000
2000
2000
2080
2080
FF80
ENDCHAR

STARTCHAR Eacute
ENCODING 201
SWIDTH 560 0
DWIDTH 10 0
BBX 9 18 0 0
BITMAP
0180
0600
1800
0000
FF80
2080
2080
2000
2000
2000
3F00
2000
2000
2000
2000
2080
2080
FF80
ENDCHAR

STARTCHAR Ecircumflex
ENCODING 202
SWIDTH 560 0
DWIDTH 10 0
BBX 9 18 0 0
BITMAP
0400
0A00
1100
0000
FF80
2080
2080
2000
2000
2000
3F00
2000
2000
2000
2000
2080
2080
FF80
ENDCHAR

STARTCHAR Edieresis
ENCODING 203
SWIDTH 560 0
DWIDTH 10 0
BBX 9 17 0 0
BITMAP
0A00
0A00
0000
FF80
2080
2080
2000
2000
2000
3F00
2000
2000
2000
2000
2080
2080
FF80
ENDCHAR

STARTCHAR Igrave
ENCODING 204
SWIDTH 300 0
DWIDTH 7 0
BBX 6 18 1 0
BITMAP
C0
30
0C
00
F8
20
20
20
20
20
20
20
20
20
20
20
20
F8
ENDCHAR

STARTCHAR Iacute
ENCODING 205
SWIDTH 300 0
DWIDTH 7 0
BBX 6 18 1 0
BITMAP
0C
30
C0
00
F8
20
20
20
20
20
20
20
20
20
20
20
20
F8
ENDCHAR

STARTCHAR Icircumflex
ENCODING 206
SWIDTH 300 0
DWIDTH 7 0
BBX 5 18 1 0
BITMAP
20
50
88
00
F8
20
20
20
20
20
20
20
20
20
20
20
20
F8
ENDCHAR

STARTCHAR Idieresis
ENCODING 207
SWIDTH 300 0
DWIDTH 7 0
BBX 5 17 1 0
BITMAP
50
50
00
F8
20
20
20
20
20
20
20
20
20
20
20
20
F8
ENDCHAR

STARTCHAR Eth
ENCODING 208
SWIDTH 720 0
DWIDTH 14 0
BBX 13 14 0 0
BITMAP
FF80
2060
2010
2010
2008
2008
FC08
2008
2008
2008
2010
2010
2060
FF80
ENDCHAR

STARTCHAR Ntilde
ENCODING 209
SWIDTH 800 0
DWIDTH 15 0
BBX 15 17 0 0
BITMAP
0640
0980
0000
F03E
3008
2808
2808
2408
2208
2208
2108
2088
2088
2048
2028
2018
F818
ENDCHAR

STARTCHAR Ograve
ENCODING 210
SWIDTH 800 0
DWIDTH 15 0
BBX 13 18 1 0
BITMAP
1800
0600
0180
0000
0F80
3060
4010
4010
8008
8008
8008
8008
8008
8008
4010
4010
3060
0F80
ENDCHAR

STARTCHAR Oacute
ENCODING 211
SWIDTH 800 0
DWIDTH 15 0
BBX 13 18 1 0
BITMAP
0060
0180
0600
0000
0F80
3060
4010
4010
8008
8008
8008
8008
8008
8008
4010
4010
3060
0F80
ENDCHAR

STARTCHAR Ocircumflex
ENCODING 212
SWIDTH 800 0
DWIDTH 15 0
BBX 13 18 1 0
BITMAP
0200
0500
0880
0000
0F80
3060
4010
4010
8008
8008
8008
8008
8008
8008
4010
4010
3060
0F80
ENDCHAR

STARTCHAR Otilde
ENCODING 213
SWIDTH 800 0
DWIDTH 15 0
BBX 13 17 1 0
BITMAP
0640
0980
0000
0F80
3060
4010
4010
8008
8008
8008
8008
8008
8008
4010
4010
3060
0F80
ENDCHAR

STARTCHAR Odieresis
ENCODING 214
SWIDTH 800 0
DWIDTH 15 0
BBX 13 17 1 0
BITMAP
0500
0500
0000
0F80
3060
4010
4010
8008
8008
8008
8008
8008
8008
4010
4010
3060
0F80
ENDCHAR

STARTCHAR multiply
ENCODING 215
SWIDTH 660 0
DWIDTH 11 0
BBX 9 9 1 2
BITMAP
8080
4100
2200
1400
0800
1400
2200
4100
8080
ENDCHAR

STARTCHAR Oslash
ENCODING 216
SWIDTH 800 0
DWIDTH 15 0
BBX 14 14 1 0
BITMAP
0F84
3068
4010
4030
8048
8088
8108
8208
8408
8808
5010
6010
7060
8F80
ENDCHAR

STARTCHAR Ugrave
ENCODING 217
SWIDTH 700 0
DWIDTH 13 0
BBX 13 18 0 0
BITMAP
1800
0600
0180
0000
F8F8
2020
2020
2020
2020
2020
2020
2020
2020
2020
2020
2020
1040
0F80
ENDCHAR

STARTCHAR Uacute
ENCODING 218
SWIDTH 700 0
DWIDTH 13 0
BBX 13 18 0 0
BITMAP
0060
0180
0600
0000
F8F8
2020
2020
2020
2020
2020
2020
2020
2020
2020
2020
2020
1040
0F80
ENDCHAR

STARTCHAR Ucircumflex
ENCODING 219
SWIDTH 700 0
DWIDTH 13 0
BBX 13 18 0 0
BITMAP
0200
0500
0880
0000
F8F8
2020
2020
2020
2020
2020
2020
2020
2020
2020
2020
2020
1040
0F80
ENDCHAR

STARTCHAR Udieresis
ENCODING 220
SWIDTH 700 0
DWIDTH 13 0
BBX 13 17 0 0
BITMAP
0500
0500
0000
F8F8
2020
2020
2020
2020
2020
2020
2020
2020
2020
2020
2020
1040
0F80
ENDCHAR

STARTCHAR Yacute
ENCODING 221
SWIDTH 680 0
DWIDTH 13 0
BBX 13 18 0 0
BITMAP
0060
0180
0600
0000
F8F8
2020
1040
1040
0880
0880
0500
0700
0200
0200
0200
0200
0200
0F80
ENDCHAR

STARTCHAR Thorn
ENCODING 222
SWIDTH 580 0
DWIDTH 12 0
BBX 11 14 0 0
BITMAP
F800
2000
2000
3F80
2040
2020
2020
2020
2020
2040
3F80
2000
2000
F800
ENDCHAR

STARTCHAR germandbls
ENCODING 223
SWIDTH 580 0
DWIDTH 11 0
BBX 10 14 0 0
BITMAP
0E00
1100
2080
2080
2080
2100
2700
2080
2040
2040
2040
2040
2880
E700
ENDCHAR

STARTCHAR agrave
ENCODING 224
SWIDTH 660 0
DWIDTH 12 0
BBX 11 14 1 0
BITMAP
3000
0C00
0300
0000
1CE0
6280
4180
8080
8080
8080
8080
4180
6280
1CE0
ENDCHAR

STARTCHAR aacute
ENCODING 225
SWIDTH 660 0
DWIDTH 12 0
BBX 11 14 1 0
BITMAP
0300
0C00
3000
0000
1CE0
6280
4180
8080
8080
8080
8080
4180
6280
1CE0
ENDCHAR

STARTCHAR acircumflex
ENCODING 226
SWIDTH 660 0
DWIDTH 12 0
BBX 11 14 1 0
BITMAP
0400
0A00
1100
0000
1CE0
6280
4180
8080
8080
8080
8080
4180
6280
1CE0
ENDCHAR

STARTCHAR atilde
ENCODING 227
SWIDTH 660 0
DWIDTH 12 0
BBX 11 14 1 0
BITMAP
1900
2600
0000
0000
1CE0
6280
4180
8080
8080
8080
8080
4180
6280
1CE0
ENDCHAR

STARTCHAR adieresis
ENCODING 228
SWIDTH 660 0
DWIDTH 12 0
BBX 11 14 1 0
BITMAP
0A00
0A00
0000
0000
1CE0
6280
4180
8080
8080
8080
8080
4180
6280
1CE0
ENDCHAR

STARTCHAR aring
ENCODING 229
SWIDTH 660 0
DWIDTH 12 0
BBX 11 14 1 0
BITMAP
0C00
1200
1200
0C00
1CE0
6280
4180
8080
8080
8080
8080
4180
6280
1CE0
ENDCHAR

STARTCHAR ae
ENCODING 230
SWIDTH 1060 0
DWIDTH 20 0
BBX 19 10 0 0
BITMAP
1E4F00
6150C0
40E040
804020
807FE0
804000
804000
40E040
615080
1E4F00
ENDCHAR

STARTCHAR ccedilla
ENCODING 231
SWIDTH 560 0
DWIDTH 10 0
BBX 9 14 0 -4
BITMAP
1E80
6180
4080
8000
8000
8000
8000
4080
6100
1E00
0800
1800
0400
1800
ENDCHAR

STARTCHAR egrave
ENCODING 232
SWIDTH 580 0
DWIDTH 11 0
BBX 10 14 1 0
BITMAP
3000
0C00
0300
0000
1E00
6180
4080
8040
FFC0
8000
8000
4040
6080
1F00
ENDCHAR

STARTCHAR eacute
ENCODING 233
SWIDTH 580 0
DWIDTH 11 0
BBX 10 14 1 0
BITMAP
0300
0C00
3000
0000
1E00
6180
4080
8040
FFC0
8000
8000
4040
6080
1F00
ENDCHAR

STARTCHAR ecircumflex
ENCODING 234
SWIDTH 580 0
DWIDTH 11 0
BBX 10 14 1 0
BITMAP
0800
1400
2200
0000
1E00
6180
4080
8040
FFC0
8000
8000
4040
6080
1F00
ENDCHAR

STARTCHAR edieresis
ENCODING 235
SWIDTH 580 0
DWIDTH 11 0
BBX 10 14 1 0
BITMAP
1400
1400
0000
0000
1E00
6180
4080
8040
FFC0
8000
8000
4040
6080
1F00
ENDCHAR

STARTCHAR igrave
ENCODING 236
SWIDTH 260 0
DWIDTH 5 0
BBX 6 14 0 0
BITMAP
C0
30
0C
00
E0
20
20
20
20
20
20
20
20
F8
ENDCHAR

STARTCHAR iacute
ENCODING 237
SWIDTH 260 0
DWIDTH 5 0
BBX 6 14 0 0
BITMAP
0C
30
C0
00
E0
20
20
20
20
20
20
20
20
F8
ENDCHAR

STARTCHAR icircumflex
ENCODING 238
SWIDTH 260 0
DWIDTH 5 0
BBX 5 14 0 0
BITMAP
20
50
88
00
E0
20
20
20
20
20
20
20
20
F8
ENDCHAR

STARTCHAR idieresis
ENCODING 239
SWIDTH 260 0
DWIDTH 5 0
BBX 5 14 0 0
BITMAP
50
50
00
00
E0
20
20
20
20
20
20
20
20
F8
ENDCHAR

STARTCHAR eth
ENCODING 240
SWIDTH 580 0
DWIDTH 12 0
BBX 10 14 1 0
BITMAP
6600
3800
6C00
8600
1F00
6180
4080
8040
8040
8040
8040
4080
6180
1E00
ENDCHAR

STARTCHAR ntilde
ENCODING 241
SWIDTH 660 0
DWIDTH 12 0
BBX 12 14 0 0
BITMAP
0C80
1300
0000
0000
EF00
3080
2040
2040
2040
2040
2040
2040
2040
F9F0
ENDCHAR

STARTCHAR ograve
ENCODING 242
SWIDTH 580 0
DWIDTH 12 0
BBX 10 14 1 0
BITMAP
3000
0C00
0300
0000
1E00
6180
4080
8040
8040
8040
8040
4080
6180
1E00
ENDCHAR

STARTCHAR oacute
ENCODING 243
SWIDTH 580 0
DWIDTH 12 0
BBX 10 14 1 0
BITMAP
0300
0C00
3000
0000
1E00
6180
4080
8040
8040
8040
8040
4080
6180
1E00
ENDCHAR

STARTCHAR ocircumflex
ENCODING 244
SWIDTH 580 0
DWIDTH 12 0
BBX 10 14 1 0
BITMAP
0800
1400
2200
0000
1E00
6180
4080
8040
8040
8040
8040
4080
6180
1E00
ENDCHAR

STARTCHAR otilde
ENCODING 245
SWIDTH 580 0
DWIDTH 12 0
BBX 10 14 1 0
BITMAP
1900
2600
0000
0000
1E00
6180
4080
8040
8040
8040
8040
4080
6180
1E00
ENDCHAR

STARTCHAR odieresis
ENCODING 246
SWIDTH 580 0
DWIDTH 12 0
BBX 10 14 1 0
BITMAP
1400
1400
0000
0000
1E00
6180
4080
8040
8040
8040
8040
4080
6180
1E00
ENDCHAR

STARTCHAR divide
ENCODING 247
SWIDTH 660 0
DWIDTH 11 0
BBX 9 9 1 2
BITMAP
0800
0800
0000
0000
FF80
0000
0000
0800
0800
ENDCHAR

STARTCHAR oslash
ENCODING 248
SWIDTH 580 0
DWIDTH 12 0
BBX 10 10 1 0
BITMAP
1E40
6180
4180
8240
8440
8840
9040
6080
6180
9E00
ENDCHAR

STARTCHAR ugrave
ENCODING 249
SWIDTH 640 0
DWIDTH 12 0
BBX 12 14 0 0
BITMAP
1800
0600
0180
0000
E1C0
2040
2040
2040
2040
2040
2040
2040
10C0
0F70
ENDCHAR

STARTCHAR uacute
ENCODING 250
SWIDTH 640 0
DWIDTH 12 0
BBX 12 14 0 0
BITMAP
0180
0600
1800
0000
E1C0
2040
2040
2040
2040
2040
2040
2040
10C0
0F70
ENDCHAR

STARTCHAR ucircumflex
ENCODING 251
SWIDTH 640 0
DWIDTH 12 0
BBX 12 14 0 0
BITMAP
0400
0A00
1100
0000
E1C0
2040
2040
2040
2040
2040
2040
2040
10C0
0F70
ENDCHAR

STARTCHAR udieresis
ENCODING 252
SWIDTH 640 0
DWIDTH 12 0
BBX 12 14 0 0
BITMAP
0A00
0A00
0000
0000
E1C0
2040
2040
2040
2040
2040
2040
2040
10C0
0F70
ENDCHAR

STARTCHAR yacute
ENCODING 253
SWIDTH 640 0
DWIDTH 11 0
BBX 11 18 0 -4
BITMAP
00C0
0300
0C00
0000
F1E0
2080
2080
1100
1100
1100
0A00
0A00
0400
0400
0400
0800
0800
3E00
ENDCHAR

STARTCHAR thorn
ENCODING 254
SWIDTH 660 0
DWIDTH 13 0
BBX 12 18 0 -4
BITMAP
E000
2000
2000
2000
2780
2860
3020
2010
2010
2010
2010
3020
2860
2780
2000
2000
2000
F800
ENDCHAR

STARTCHAR ydieresis
ENCODING 255
SWIDTH 640 0
DWIDTH 11 0
BBX 11 18 0 -4
BITMAP
0A00
0A00
0000
0000
F1E0
2080
2080
1100
1100
1100
0A00
0A00
0400
0400
0400
0800
0800
3E00
ENDCHAR
ENDFONT
